<svg xmlns="http://www.w3.org/2000/svg" width="31.142" height="27.683" viewBox="0 0 31.142 27.683">
  <g id="Group_4146" data-name="Group 4146" transform="translate(0.75 0.75)">
    <path id="Path_8894" data-name="Path 8894" d="M181.233,377.193h0a4.9,4.9,0,0,1,4.813-4.975h4.307a4.9,4.9,0,0,1,4.816,4.975h4.49a2.9,2.9,0,0,1,2.857,2.949v14.839a3.367,3.367,0,0,1-3.312,3.42H176.185a3.367,3.367,0,0,1-3.312-3.42V379.663a2.431,2.431,0,0,1,2.39-2.47Z" transform="translate(-172.873 -372.218)" fill="none" stroke="#fff827" stroke-linecap="round" stroke-miterlimit="10" stroke-width="1.5"/>
    <rect id="Rectangle_1941" data-name="Rectangle 1941" width="4.18" height="3.633" transform="translate(1.9 1.341)" fill="none" stroke="#fff827" stroke-linecap="round" stroke-miterlimit="10" stroke-width="1.5"/>
    <path id="Path_8895" data-name="Path 8895" d="M188.535,381.435a6.465,6.465,0,1,1-6.461-6.675A6.573,6.573,0,0,1,188.535,381.435Z" transform="translate(-167.252 -366.741)" fill="none" stroke="#fff827" stroke-linecap="round" stroke-miterlimit="10" stroke-width="1.5"/>
    <ellipse id="Ellipse_116" data-name="Ellipse 116" cx="1.33" cy="1.375" rx="1.33" ry="1.375" transform="translate(22.231 7.723)" fill="none" stroke="#fff827" stroke-linecap="round" stroke-miterlimit="10" stroke-width="1.5"/>
  </g>
</svg>
