<svg xmlns="http://www.w3.org/2000/svg" xmlns:xlink="http://www.w3.org/1999/xlink" width="88" height="75" viewBox="0 0 88 75">
  <defs>
    <linearGradient id="linear-gradient" x1="0.5" x2="0.5" y2="1" gradientUnits="objectBoundingBox">
      <stop offset="0" stop-color="#0f9"/>
      <stop offset="1" stop-color="#098856"/>
    </linearGradient>
    <filter id="Rectangle_1513" x="-9" y="-9" width="106" height="93" filterUnits="userSpaceOnUse">
      <feOffset input="SourceAlpha"/>
      <feGaussianBlur stdDeviation="3" result="blur"/>
      <feFlood flood-opacity="0.161"/>
      <feComposite operator="in" in2="blur"/>
      <feComposite in="SourceGraphic"/>
    </filter>
    <clipPath id="clip-path">
      <g transform="matrix(1, 0, 0, 1, 0, 0)" filter="url(#Rectangle_1513)">
        <rect id="Rectangle_1513-2" data-name="Rectangle 1513" width="88" height="75" rx="4" transform="translate(1946 479.13)" fill="url(#linear-gradient)"/>
      </g>
    </clipPath>
  </defs>
  <g id="Mask_Group_5" data-name="Mask Group 5" transform="translate(-1946 -479.126)" clip-path="url(#clip-path)">
    <g id="Group_3479" data-name="Group 3479" transform="translate(1948.453 480)">
      <path id="Path_4822" data-name="Path 4822" d="M148.634,232.188c-11.709,0-14.6,2.662-12.729,6.055s-3.485,6.947-11.212,7.37-9.985,4.644-4.936,7.355,15.195-.588,15.195,2.818c0,3.483,8.794,1.009,9.524,3.6.675,2.4,9.67-1.06,9.728,1.272s10.595,1.138,10.571-.6,17.354-.931,16.718-6.419-19.508-2.733-18.438-8.137-1.45-12.315-6.87-11.879S148.634,232.188,148.634,232.188Z" transform="translate(-114.213 -187.603)" fill="#ccc" opacity="0.77" style="mix-blend-mode: multiply;isolation: isolate"/>
      <g id="Group_3478" data-name="Group 3478" transform="translate(0 0)">
        <g id="Group_3465" data-name="Group 3465" transform="translate(18.298)">
          <path id="Path_4823" data-name="Path 4823" d="M260.023,54.685c.693-7.511-5.6-15.481-17.49-14.883-7.259.365-9.546,4.716-9.482,6.71l6.15-.4c2.114-2.458,5.894-1.926,9.162-.864,4.408,1.434,8.265,5.254,6.279,10.828a2.267,2.267,0,0,1-.394.664h5.326A8.4,8.4,0,0,0,260.023,54.685Z" transform="translate(-221.626 -39.77)" fill="#254e20"/>
          <path id="Path_4824" data-name="Path 4824" d="M193.762,172.037c4.036,5.376,22.3,3.792,22.552,7.512a1.72,1.72,0,0,1-.277,1.063h3.4a3.029,3.029,0,0,0,.143-.93c0-5.314-19.77-6.045-21.545-8.835a2.66,2.66,0,0,1-.433-1.063h-4.851A4.844,4.844,0,0,0,193.762,172.037Z" transform="translate(-190.666 -139.658)" fill="#254e20"/>
          <path id="Path_4825" data-name="Path 4825" d="M214.281,178.921a36.037,36.037,0,0,0-4.344-1.009,1.457,1.457,0,0,1,.825-1.614c-2.024-.489-4.126-.92-6.016-1.346h0a1.731,1.731,0,0,1,1.033,2.221,69.907,69.907,0,0,1-8.124-1.707c-2.609-.863-3.97-2.3-4.422-3.387a5.335,5.335,0,0,0,.9,1.722c2.191,2.918,8.572,3.785,13.99,4.563.692.1,1.369.2,2.019.3h0c3.635.563,6.444,1.207,6.543,2.65a1.72,1.72,0,0,1-.277,1.063C217.068,181.678,217.613,180.05,214.281,178.921Z" transform="translate(-191.036 -141.422)" fill="#ccc" opacity="0.82" style="mix-blend-mode: multiply;isolation: isolate"/>
          <g id="Group_3459" data-name="Group 3459" transform="translate(0 9.837)">
            <path id="Path_4826" data-name="Path 4826" d="M217.53,95.115H183.752c-.142,2.823,5.187,10.535,11.377,13.871h0a8.345,8.345,0,0,1,3.782,7.039v9.212c0,2.657-8.542,4.163-8.542,6.378s3.887,3.809,10.272,3.809h0c6.385,0,10.273-1.594,10.273-3.809s-8.542-3.72-8.542-6.378v-9.212a8.345,8.345,0,0,1,3.782-7.039h0C212.343,105.65,217.672,97.938,217.53,95.115Z" transform="translate(-183.749 -92.128)" fill="#c4e9fb"/>
            <path id="Path_4827" data-name="Path 4827" d="M273.54,95.115h-9.682C260,96.7,256.651,98.1,256.651,98.1c3.641-.07,15.013.74,8.606,6.586s-8.03,6.991-8.03,10.581-1.2,10.854.94,12.271,10.438,5.284-.048,7.853c5.507-.227,8.8-1.739,8.8-3.778,0-2.214-8.542-3.72-8.542-6.378v-9.212a8.345,8.345,0,0,1,3.782-7.039h0C268.353,105.65,273.683,97.938,273.54,95.115Z" transform="translate(-239.759 -92.128)" fill="#ccc" opacity="0.77" style="mix-blend-mode: multiply;isolation: isolate"/>
            <path id="Path_4828" data-name="Path 4828" d="M198.339,134.225a2.8,2.8,0,0,1,1.925-2.61c2.648-1.24,5.424-3.1,5.424-5.934v-9.832c0-3.809-.769-6.112-2.648-8.06s-7-6.953-7.09-12.312c0-.127-.01-.244-.017-.361h-4.975a29.064,29.064,0,0,0,10.587,13.2s3.5,3,3.5,6.95v9.968c0,1.949-1.367,2.834-2.9,3.632-1.24.643-4.757,2.15-5.982,3.685A4.326,4.326,0,0,0,198.339,134.225Z" transform="translate(-189.288 -92.128)" fill="#fff" opacity="0.67"/>
            <ellipse id="Ellipse_34" data-name="Ellipse 34" cx="16.889" cy="2.987" rx="16.889" ry="2.987" transform="translate(0.003)" fill="#d9f1fd"/>
            <path id="Path_4829" data-name="Path 4829" d="M203.924,90.273c-9.51,0-14.839-1.3-15.9-2.091,1.063-.789,6.392-2.091,15.9-2.091s14.839,1.3,15.9,2.091C218.762,88.971,213.434,90.273,203.924,90.273Z" transform="translate(-187.032 -85.195)" fill="#a2cde2"/>
            <path id="Path_4830" data-name="Path 4830" d="M201.674,86.229c-7.93.2-12.41,1.342-13.376,2.059.631.469,2.767,1.118,6.389,1.568C192.776,88.583,195.207,86.467,201.674,86.229Z" transform="translate(-187.245 -85.301)" fill="#ccc" opacity="0.77" style="mix-blend-mode: multiply;isolation: isolate"/>
          </g>
          <path id="Path_4831" data-name="Path 4831" d="M222.917,220.7c-2.64.787-2.387,2.418-1.944,3.4a.181.181,0,0,0,.348-.068c.016-.881.483-2.16,2.973-2.435,3.637-.4,15.195-.66,16.612-5.078h-3.4C235.767,219.257,226.418,219.657,222.917,220.7Z" transform="translate(-212.133 -175.562)" fill="#254e20"/>
          <path id="Path_4832" data-name="Path 4832" d="M223.192,113.016c-1.971,2.407-9.624,4.09-17.033,5.248-6.883,1.076-14.044,3.795-13.5,7.905h4.851c-.246-1.9,3.2-2.452,8.588-3.5,5.8-1.127,19.651-1.875,22.423-9.656Z" transform="translate(-190.57 -96.044)" fill="#254e20"/>
          <path id="Path_4833" data-name="Path 4833" d="M237.75,197.371c3.5,1.606,3.182,4.17,1.869,5.5s-5.811,2.326-11.308,3.023c-5.766.731-5.606,1.063-6.247,1.893s-.283,1.534-.771,1.242h0a3.517,3.517,0,0,0,.141.36.181.181,0,0,0,.348-.068c.016-.881.483-2.16,2.973-2.435,3.637-.4,15.195-.66,16.612-5.078a3.029,3.029,0,0,0,.143-.93C241.509,199.4,239.986,198.282,237.75,197.371Z" transform="translate(-212.594 -160.854)" fill="#ccc" opacity="0.82" style="mix-blend-mode: multiply;isolation: isolate"/>
          <path id="Path_4834" data-name="Path 4834" d="M239.6,96.874c-.021.066.32,2.414-.534,3.189a2.6,2.6,0,0,0-.854,1.772,3.684,3.684,0,0,1,.719-.965v1.164a5.907,5.907,0,0,1,.861-1.9,5.187,5.187,0,0,0,.7-3.255Z" transform="translate(-225.596 -83.643)" fill="#f15a24"/>
          <g id="Group_3460" data-name="Group 3460" transform="translate(6.571 2.477)" opacity="0.82" style="mix-blend-mode: multiply;isolation: isolate">
            <path id="Path_4835" data-name="Path 4835" d="M321.143,50.525l-.1-.064Z" transform="translate(-295.8 -50.461)" fill="#ccc"/>
            <path id="Path_4836" data-name="Path 4836" d="M243.486,65.774a8.4,8.4,0,0,0,.449-2.057,13.145,13.145,0,0,0-6.2-12.191c3.129,2.114,4.611,6.151,4.918,7.8.32,1.727.832,6.444-2.531,9.3s-8.841,4.218-15.6,5.182-10.187,1.827-11.66,3.255-.513,2.79.57,3.416h0a1.775,1.775,0,0,1-.524-.493,2.66,2.66,0,0,1-.433-1.063c-.246-1.9,3.2-2.452,8.588-3.5C226.866,74.3,240.714,73.554,243.486,65.774Z" transform="translate(-212.109 -51.279)" fill="#ccc"/>
          </g>
          <path id="Path_4837" data-name="Path 4837" d="M307.649,113.016c-.833,1.016-2.681,1.9-5.093,2.676h.007a9.522,9.522,0,0,0,5.52-2.675Z" transform="translate(-275.028 -96.044)" fill="#ccc" opacity="0.77" style="mix-blend-mode: multiply;isolation: isolate"/>
          <path id="Path_4838" data-name="Path 4838" d="M268.618,68.617h.434c1.454-1.669,1.658-3.971.729-6.843-1.634-5.049-8.553-6.643-12.077-6.543s-3.94,1.761-5.51,1.672l-.44,1.2,1.818-.118c2.114-2.458,5.894-1.926,9.162-.864,4.408,1.434,8.265,5.254,6.279,10.828A2.265,2.265,0,0,1,268.618,68.617Z" transform="translate(-235.996 -51.645)" fill="#ccc" opacity="0.77" style="mix-blend-mode: multiply;isolation: isolate"/>
          <path id="Path_4839" data-name="Path 4839" d="M242.932,96.826h-.9c-.007.023.028.315.043.718.28-.07.651-.073.555.443-.149.808.064,1.192-.726,2.136a2.8,2.8,0,0,0-.541,1.107v.756a5.913,5.913,0,0,1,.861-1.9A5.187,5.187,0,0,0,242.932,96.826Z" transform="translate(-228.016 -83.606)" fill="#cd4d20"/>
          <path id="Path_4840" data-name="Path 4840" d="M229.874,61.533c-1.959-.083-4.7.664-4.863,2.956s2.2,5.647,4.863,5.647,4.523-3.554,4.555-5.447S232.239,61.632,229.874,61.533Z" transform="translate(-215.445 -56.486)" fill="#254e20"/>
          <path id="Path_4841" data-name="Path 4841" d="M238.078,62.46c.186.075,3.522,1.469,2.214,4.1-1.345,2.71-3.647,4.385-6.022,3.233-.161-.078-.309-.142-.447-.2a4.272,4.272,0,0,0,2.843,1.268c2.665,0,4.523-3.554,4.555-5.447C241.246,63.915,239.843,62.874,238.078,62.46Z" transform="translate(-222.22 -57.203)" fill="#ccc" opacity="0.77" style="mix-blend-mode: multiply;isolation: isolate"/>
          <g id="Group_3462" data-name="Group 3462" transform="translate(10.09 8.327)">
            <g id="Group_3461" data-name="Group 3461">
              <path id="Path_4842" data-name="Path 4842" d="M227.38,75.868c-.385.433.622,2.6,1.248,2.279S228.133,75.022,227.38,75.868Z" transform="translate(-227.295 -75.709)" fill="#fff8a5"/>
              <path id="Path_4843" data-name="Path 4843" d="M229.349,79.2c-.347.192-.014-.962.283-1.133C229.632,78.067,229.779,78.962,229.349,79.2Z" transform="translate(-228.759 -77.521)" fill="#254e20"/>
            </g>
            <path id="Path_4844" data-name="Path 4844" d="M227.515,79.294c.181.773.83,1.838,1.282,1.607.221-.113.224-.535.1-1h0C229.061,81.361,228.05,80.43,227.515,79.294Z" transform="translate(-227.464 -78.463)" fill="#ccc" opacity="0.77" style="mix-blend-mode: multiply;isolation: isolate"/>
          </g>
          <g id="Group_3464" data-name="Group 3464" transform="translate(16.959 8.327)">
            <g id="Group_3463" data-name="Group 3463">
              <path id="Path_4845" data-name="Path 4845" d="M258.373,75.868c.385.433-.622,2.6-1.248,2.279S257.62,75.022,258.373,75.868Z" transform="translate(-256.942 -75.709)" fill="#fff8a5"/>
              <path id="Path_4846" data-name="Path 4846" d="M259.923,79.2c.347.192.014-.962-.283-1.133C259.64,78.067,259.493,78.962,259.923,79.2Z" transform="translate(-258.996 -77.521)" fill="#254e20"/>
            </g>
            <path id="Path_4847" data-name="Path 4847" d="M258.408,79.294c-.181.773-.83,1.838-1.282,1.607-.221-.113-.224-.535-.1-1h0C256.863,81.361,257.873,80.43,258.408,79.294Z" transform="translate(-256.943 -78.463)" fill="#ccc" opacity="0.77" style="mix-blend-mode: multiply;isolation: isolate"/>
          </g>
          <path id="Path_4848" data-name="Path 4848" d="M226.88,66.277s-.011-2.037,3.1-2.391c0,0,2.619-.177,1.182.31S228.055,64.306,226.88,66.277Z" transform="translate(-216.886 -58.274)" fill="#3d6836"/>
          <path id="Path_4849" data-name="Path 4849" d="M238.677,45.5s2.776-4.96,10.934-4.163,11.276,5.713,11.276,5.713A18.286,18.286,0,0,0,249.269,42c-7.645-.31-9.439,3.233-9.439,3.233A2.352,2.352,0,0,0,238.677,45.5Z" transform="translate(-225.95 -40.909)" fill="#3d6836"/>
          <path id="Path_4850" data-name="Path 4850" d="M198.04,134.822s-4.741-2.742-.94-6.064,10.891-4.03,14.992-4.694,10.208-2.259,12.258-3.5c0,0-1.709,2.347-12.216,4.163s-13.57,2.966-15.419,5.934C195.373,132.818,198.04,134.822,198.04,134.822Z" transform="translate(-192.873 -101.844)" fill="#3d6836"/>
          <path id="Path_4851" data-name="Path 4851" d="M222.087,226.752s.192-1.461,3.716-1.971,10.144-1.683,11.724-2.724c0,0-2.172,1.542-8.2,2.347S222.536,226,222.087,226.752Z" transform="translate(-213.204 -179.821)" fill="#3d6836"/>
        </g>
        <g id="Group_3469" data-name="Group 3469" transform="translate(0 27.564)">
          <path id="Path_4852" data-name="Path 4852" d="M200.682,158.951c-1.536-.471-2.849-.217-3.2,1.113s1.8,1.575,2.647,1.9,2.752.841,3.132-.461S202.364,159.466,200.682,158.951Z" transform="translate(-175.971 -158.732)" fill="#fff"/>
          <g id="Group_3467" data-name="Group 3467" transform="translate(2.297 13.09)">
            <path id="Path_4853" data-name="Path 4853" d="M159.038,298.47c-.143-1.887-4.876-3.066-7.648-3.066v0c-2.772,0-7.5,1.179-7.648,3.066s3.585,3.066,7.648,3.066h0C155.453,301.537,159.181,300.357,159.038,298.47Z" transform="translate(-137.008 -276.826)" fill="#f3f4f4"/>
            <g id="Group_3466" data-name="Group 3466" transform="translate(8.182 18.578)">
              <path id="Path_4854" data-name="Path 4854" d="M156.205,298V295.4a14.792,14.792,0,0,0-6.2,1.424A14.876,14.876,0,0,0,156.205,298Z" transform="translate(-150.005 -295.404)" fill="#dee0e1"/>
              <path id="Path_4855" data-name="Path 4855" d="M175.372,295.4V298c.246.006.5.01.76.01,5.7,0,6.675,2.062,0,3.256a11.2,11.2,0,0,0-1.179.267c.139,0,.279,0,.419,0h0c4.063,0,7.791-1.179,7.648-3.066S178.144,295.4,175.372,295.4Z" transform="translate(-169.172 -295.404)" fill="#dee0e1"/>
            </g>
            <path id="Path_4856" data-name="Path 4856" d="M146.263,237.6l-13.048-.832-13.047.832s-1.977,14.6,13.047,14.6S146.263,237.6,146.263,237.6Z" transform="translate(-118.833 -231.779)" fill="#f3f4f4"/>
            <path id="Path_4857" data-name="Path 4857" d="M133.216,236.772l-13.047.832a15.479,15.479,0,0,0-.052,2.721c1.454,1.013,4.968,2.489,13.1,2.489,11.714,0,12.337,4.28,5.234,8.65,9.287-2.965,7.814-13.86,7.814-13.86Z" transform="translate(-118.835 -231.779)" fill="#e5e6e6"/>
            <ellipse id="Ellipse_35" data-name="Ellipse 35" cx="14.381" cy="4.993" rx="14.381" ry="4.993" fill="#fff"/>
            <path id="Path_4858" data-name="Path 4858" d="M138.42,222.094c-5.83,0-11.563,1.194-11.563,2.768s3.887,2.876,11.563,2.876,11.564-1.3,11.564-2.876S144.251,222.094,138.42,222.094Z" transform="translate(-124.039 -220.502)" fill="#dcddde"/>
            <path id="Path_4859" data-name="Path 4859" d="M151.321,231.979c-1.595-1.136-6.258-1.921-10.986-1.921s-9.391.785-10.986,1.921c1.341,1.09,5.018,1.878,10.986,1.878S149.98,233.069,151.321,231.979Z" transform="translate(-125.954 -226.621)" fill="#b3b5b7"/>
            <path id="Path_4860" data-name="Path 4860" d="M125.385,261.98a11.366,11.366,0,0,0,10.359,8.629c6.755.7,12.888-6.856,5.6-6.847a73.609,73.609,0,0,1-14.695-1.782C124.723,261.709,125.385,261.98,125.385,261.98Z" transform="translate(-122.824 -251.054)" fill="#fff"/>
            <path id="Path_4861" data-name="Path 4861" d="M142.567,228.744c.856,3.737-4.859,6.111-13.925,6.111-10.253,0-13.137-2.105-13.8-5.03a2.179,2.179,0,0,0-.147.779c0,4.468,8.065,4.993,14.381,4.993s14.382-.525,14.382-4.993A2.583,2.583,0,0,0,142.567,228.744Z" transform="translate(-114.695 -225.611)" fill="#f3f4f4"/>
            <path id="Path_4862" data-name="Path 4862" d="M147.171,304.685s-3.066,2.958,7.516,3.229c0,0-8.276-1.133-6.4-2.859C148.283,305.055,147.74,304.333,147.171,304.685Z" transform="translate(-139.329 -283.882)" fill="#fff"/>
          </g>
          <path id="Path_4863" data-name="Path 4863" d="M111.119,229.054a8.76,8.76,0,0,0-6.339-1.825s6.073-4.926,11.086,3C115.866,230.228,112.438,229.914,111.119,229.054Z" transform="translate(-104.78 -210.195)" fill="#569458"/>
          <path id="Path_4864" data-name="Path 4864" d="M113.812,229.931c1.1.21,2.054.3,2.054.3-5.014-7.926-11.086-3-11.086-3S110.69,224.935,113.812,229.931Z" transform="translate(-104.78 -210.195)" fill="#4c844e"/>
          <path id="Path_4865" data-name="Path 4865" d="M128.876,208.38s-3.338-5.785-3.6-10.488c0,0,4.367,2.651,7.443,11.076A28.051,28.051,0,0,1,128.876,208.38Z" transform="translate(-120.526 -188.818)" fill="#d9e021"/>
          <path id="Path_4866" data-name="Path 4866" d="M132.718,208.968c-3.076-8.425-7.443-11.076-7.443-11.076a91.465,91.465,0,0,0,5.7,10.88C131.907,208.9,132.718,208.968,132.718,208.968Z" transform="translate(-120.526 -188.818)" fill="#b7d436"/>
          <g id="Group_3468" data-name="Group 3468" transform="translate(11.967 10.665)">
            <path id="Path_4867" data-name="Path 4867" d="M156.653,214.246s-2.026-8.905,6.079-9.484a8.814,8.814,0,0,0-2.931,9.66A27.851,27.851,0,0,1,156.653,214.246Z" transform="translate(-156.428 -204.762)" fill="#d9e021"/>
            <path id="Path_4868" data-name="Path 4868" d="M162.1,214.357c1.129.077,1.921.066,1.921.066a8.814,8.814,0,0,1,2.931-9.66C161.34,206.407,161.748,212.226,162.1,214.357Z" transform="translate(-160.647 -204.762)" fill="#b7d436"/>
          </g>
          <path id="Path_4869" data-name="Path 4869" d="M148.1,204.932s-2.279-7.779-1.664-12.193c0,0,3.389,3.944,4.7,12.446C151.131,205.185,148.524,204.984,148.1,204.932Z" transform="translate(-136.701 -184.859)" fill="#569458"/>
          <path id="Path_4870" data-name="Path 4870" d="M200.547,164.016a3.892,3.892,0,0,0-3.068-.237c-.343,1.324,1.807,1.569,2.649,1.893s2.752.841,3.132-.461a1.363,1.363,0,0,0-.341-1.4C203.011,164.851,201.862,164.573,200.547,164.016Z" transform="translate(-175.972 -162.441)" fill="#f3f4f4"/>
          <path id="Path_4871" data-name="Path 4871" d="M151.48,205.185c-1.308-8.5-4.7-12.446-4.7-12.446a80.207,80.207,0,0,1,3.123,12.321C150.688,205.124,151.48,205.185,151.48,205.185Z" transform="translate(-137.051 -184.859)" fill="#4c844e"/>
          <path id="Path_4872" data-name="Path 4872" d="M198.466,217.246s1.158-6.409,5.463-8.58a63.372,63.372,0,0,0-2.28,8.021A19.957,19.957,0,0,1,198.466,217.246Z" transform="translate(-176.758 -197.096)" fill="#569458"/>
          <path id="Path_4873" data-name="Path 4873" d="M207.668,216.687a63.372,63.372,0,0,1,2.28-8.021c-2.635,2.663-3.428,6.7-3.648,8.328C207.061,216.845,207.668,216.687,207.668,216.687Z" transform="translate(-182.776 -197.096)" fill="#4c844e"/>
          <path id="Path_4874" data-name="Path 4874" d="M174.229,184.939a71.061,71.061,0,0,1,6.665-18.5,3.625,3.625,0,0,1,2.985.868s-.6,8.609-2.162,17.164A26.051,26.051,0,0,1,174.229,184.939Z" transform="translate(-158.137 -164.616)" fill="#f3f4f4"/>
          <path id="Path_4875" data-name="Path 4875" d="M180.894,166.592c-.057.112-.111.222-.167.333,1.127.208,3.086.813,2.555,3.05-.6,2.514-2.5,13.676-5.463,13.821-1.9.093-2.391-1.866-2.468-3.3a45.473,45.473,0,0,0-1.122,4.6,26.057,26.057,0,0,0,7.489-.47c1.557-8.556,2.162-17.165,2.162-17.165A3.626,3.626,0,0,0,180.894,166.592Z" transform="translate(-158.137 -164.736)" fill="#e5e6e6"/>
          <path id="Path_4876" data-name="Path 4876" d="M189.109,173.614c-.2-1.7-1.228-2.9-2.48-.758-.906,1.921-1.673,3.738-2.321,5.415-1.29,3.6-1.974,7.174.263,6.993C186.3,185.124,189.305,175.314,189.109,173.614Z" transform="translate(-164.962 -168.701)" fill="#fff"/>
          <path id="Path_4877" data-name="Path 4877" d="M205.729,170.242c.172-1.824.251-2.938.251-2.938a3.59,3.59,0,0,0-2.823-.892l-.162.06A5.633,5.633,0,0,1,205.729,170.242Z" transform="translate(-180.238 -164.616)" fill="#dcddde" style="mix-blend-mode: multiply;isolation: isolate"/>
          <path id="Path_4878" data-name="Path 4878" d="M198.466,231.043s1.592-4.557,7.417-4.415a9.82,9.82,0,0,0-3.778,3.741A19.386,19.386,0,0,1,198.466,231.043Z" transform="translate(-176.758 -210.893)" fill="#d9e021"/>
          <path id="Path_4879" data-name="Path 4879" d="M206.589,230.8c.928-.191,1.757-.422,1.757-.422a9.82,9.82,0,0,1,3.778-3.741A7.6,7.6,0,0,0,206.589,230.8Z" transform="translate(-182.999 -210.904)" fill="#b7d436"/>
        </g>
        <g id="Group_3471" data-name="Group 3471" transform="translate(41.957 29.281)">
          <path id="Path_4880" data-name="Path 4880" d="M307.243,235.343a1.27,1.27,0,0,0,0-.39v-26.7h-21.37v26.7a1.27,1.27,0,0,0,0,.39v.081h.015c.411,1.9,5.031,3.4,10.67,3.4s10.259-1.5,10.67-3.4h.015Z" transform="translate(-285.858 -198.495)" fill="#f79139"/>
          <path id="Path_4881" data-name="Path 4881" d="M307.243,236.369a1.27,1.27,0,0,1,0,.39v.081h-.015c-.411,1.9-5.031,3.4-10.67,3.4s-10.259-1.5-10.67-3.4h-.015v-.081a1.27,1.27,0,0,1,0-.39v14.137a1.27,1.27,0,0,0,0,.39v.081h.015c.411,1.9,5.031,3.4,10.67,3.4s10.259-1.5,10.67-3.4h.015V250.9a1.27,1.27,0,0,0,0-.39Z" transform="translate(-285.858 -220.096)" fill="#678c3e"/>
          <path id="Path_4882" data-name="Path 4882" d="M321.885,265.152h-2.926v-2.926h-3.385v2.926h-2.926v3.385h2.926v2.926h3.385v-2.926h2.926Z" transform="translate(-306.441 -239.962)" fill="#9cce7a"/>
          <path id="Path_4883" data-name="Path 4883" d="M291.5,238.829a12.126,12.126,0,0,0,3.843,1.381V211.62l-3.843-.879Z" transform="translate(-290.196 -200.407)" fill="#fff" opacity="0.25"/>
          <path id="Path_4884" data-name="Path 4884" d="M312.124,243.262c.595.1,1.219.177,1.869.236V215.372l-1.869-.879Z" transform="translate(-306.038 -203.289)" fill="#fff" opacity="0.25"/>
          <path id="Path_4885" data-name="Path 4885" d="M332.037,238.828c5.639,0,10.259-1.5,10.67-3.4h.015v-.081a1.27,1.27,0,0,0,0-.39v-26.7H338.5c-3.215,1.84-6.461,3.68-6.461,3.68,4.108.28,8.152-1.084,8.152,11.841S337.275,238.279,332.037,238.828Z" transform="translate(-321.337 -198.495)" fill="#ccc" opacity="0.77" style="mix-blend-mode: multiply;isolation: isolate"/>
          <ellipse id="Ellipse_36" data-name="Ellipse 36" cx="10.7" cy="3.679" rx="10.7" ry="3.679" transform="translate(0 6.079)" fill="#fbb03b"/>
          <path id="Path_4886" data-name="Path 4886" d="M318.4,193.04l-7.976,5.144a24.657,24.657,0,0,0,10.1.345c2.572-.465,4.106-.373,3.513.231,1.313-.611,2.09-1.367,2.09-2.185C326.134,194.9,322.868,193.483,318.4,193.04Z" transform="translate(-304.734 -186.807)" fill="#ccc" opacity="0.77" style="mix-blend-mode: multiply;isolation: isolate"/>
          <path id="Path_4887" data-name="Path 4887" d="M313.017,193.947l-7.152.652-7.152-.652a4.8,4.8,0,0,0-.737,2.91s.109,2.524,7.888,2.524,7.888-2.524,7.888-2.524A4.8,4.8,0,0,0,313.017,193.947Z" transform="translate(-295.165 -187.504)" fill="#ccc"/>
          <path id="Path_4888" data-name="Path 4888" d="M321.591,194.4l-6.02,2.433a24.088,24.088,0,0,0,8.167.431c2.625-.467,3.381,1.313-1.231,1.954,4.69-.563,4.768-2.358,4.768-2.358a4.8,4.8,0,0,0-.737-2.91Z" transform="translate(-308.686 -187.504)" fill="#ccc" opacity="0.77" style="mix-blend-mode: multiply;isolation: isolate"/>
          <ellipse id="Ellipse_37" data-name="Ellipse 37" cx="7.385" cy="2.606" rx="7.385" ry="2.606" transform="translate(3.316 4.488)" fill="#e5e6e6"/>
          <path id="Path_4889" data-name="Path 4889" d="M336.186,187.817a8.256,8.256,0,0,0-4.059-1.458c-.1.018-.157.033-.157.033l-3.481,3.845C332.457,190.237,337.943,189.875,336.186,187.817Z" transform="translate(-318.611 -181.674)" fill="#ccc" opacity="0.77" style="mix-blend-mode: multiply;isolation: isolate"/>
          <path id="Path_4890" data-name="Path 4890" d="M307.034,174.045v4.918c0,1.011,2.594,1.832,5.793,1.832s5.793-.82,5.793-1.832v-4.918Z" transform="translate(-302.127 -172.213)" fill="#ccc"/>
          <g id="Group_3470" data-name="Group 3470" transform="translate(4.907 1.832)">
            <path id="Path_4891" data-name="Path 4891" d="M307.034,174.045v4.918a.638.638,0,0,0,.068.282v-3.9a.176.176,0,0,1,.352,0v4.306a2.292,2.292,0,0,0,.19.133V175.67a.176.176,0,1,1,.352,0v4.3c.069.033.141.065.217.1v-4.2a.176.176,0,0,1,.352,0V180.2c.087.03.178.059.271.087v-4.237a.176.176,0,0,1,.352,0v4.335c.084.021.17.042.257.062v-4.323a.176.176,0,1,1,.352,0v4.4q.14.027.284.052v-4.332a.176.176,0,1,1,.352,0v4.387q.147.021.3.04v-4.344a.176.176,0,1,1,.352,0v4.384c.094.009.189.018.284.026v-4.341a.176.176,0,0,1,.352,0v4.367l.285.015v-4.342a.176.176,0,1,1,.352,0v4.354l.244,0v-4.358a.176.176,0,0,1,.352,0v4.359l.257,0v-4.369a.176.176,0,0,1,.352,0v4.358l.284-.014v-4.385a.176.176,0,1,1,.352,0v4.361l.284-.024v-4.405a.176.176,0,0,1,.352,0v4.369q.151-.018.3-.038v-4.413a.176.176,0,0,1,.352,0v4.359c.1-.016.191-.032.284-.05v-4.427a.176.176,0,0,1,.352,0v4.355c.088-.019.173-.039.257-.06v-4.37a.176.176,0,0,1,.352,0v4.277c.093-.027.183-.055.271-.084v-4.37a.176.176,0,1,1,.352,0v4.243q.113-.044.217-.092v-4.357a.176.176,0,1,1,.352,0v4.178c.068-.04.13-.081.19-.122v-4.384a.176.176,0,1,1,.352,0v4.055a.7.7,0,0,0,.155-.421v-4.918Z" transform="translate(-307.034 -174.045)" fill="none"/>
            <path id="Path_4892" data-name="Path 4892" d="M331.236,183.6a.177.177,0,0,0-.176.176v4.358l.226,0h.126v-4.359A.177.177,0,0,0,331.236,183.6Z" transform="translate(-325.493 -181.385)" fill="#b2b2b3"/>
            <path id="Path_4893" data-name="Path 4893" d="M328.665,183.6a.177.177,0,0,0-.176.176v4.341q.174.008.352.012v-4.354A.177.177,0,0,0,328.665,183.6Z" transform="translate(-323.518 -181.385)" fill="#b2b2b3"/>
            <path id="Path_4894" data-name="Path 4894" d="M325.917,183.426a.177.177,0,0,0-.176.176v4.342c.116.009.234.018.352.025V183.6A.177.177,0,0,0,325.917,183.426Z" transform="translate(-321.406 -181.252)" fill="#b2b2b3"/>
            <path id="Path_4895" data-name="Path 4895" d="M323.17,183.131a.177.177,0,0,0-.176.176v4.344c.116.014.233.028.352.04v-4.384A.177.177,0,0,0,323.17,183.131Z" transform="translate(-319.296 -181.026)" fill="#b2b2b3"/>
            <path id="Path_4896" data-name="Path 4896" d="M320.365,182.777a.176.176,0,0,0-.176.176v4.332c.115.019.233.038.352.055v-4.387A.177.177,0,0,0,320.365,182.777Z" transform="translate(-317.141 -180.754)" fill="#b2b2b3"/>
            <path id="Path_4897" data-name="Path 4897" d="M317.617,182.271a.177.177,0,0,0-.176.176v4.323q.172.039.352.075v-4.4A.177.177,0,0,0,317.617,182.271Z" transform="translate(-315.03 -180.365)" fill="#b2b2b3"/>
            <path id="Path_4898" data-name="Path 4898" d="M314.987,181.95a.177.177,0,0,0-.176.176v4.237q.17.051.352.1v-4.335A.177.177,0,0,0,314.987,181.95Z" transform="translate(-313.009 -180.118)" fill="#b2b2b3"/>
            <path id="Path_4899" data-name="Path 4899" d="M312.3,181.183a.177.177,0,0,0-.176.176v4.2q.166.069.352.133v-4.328A.177.177,0,0,0,312.3,181.183Z" transform="translate(-310.943 -179.529)" fill="#b2b2b3"/>
            <path id="Path_4900" data-name="Path 4900" d="M309.843,180.3a.177.177,0,0,0-.176.176v4.111a3.366,3.366,0,0,0,.352.193v-4.3A.177.177,0,0,0,309.843,180.3Z" transform="translate(-309.057 -178.849)" fill="#b2b2b3"/>
            <path id="Path_4901" data-name="Path 4901" d="M307.505,178.883a.177.177,0,0,0-.176.176v3.9a1.209,1.209,0,0,0,.352.4v-4.306A.177.177,0,0,0,307.505,178.883Z" transform="translate(-307.261 -177.762)" fill="#b2b2b3"/>
            <path id="Path_4902" data-name="Path 4902" d="M333.867,183.54a.177.177,0,0,0-.176.176v4.369q.178,0,.352-.011v-4.358A.177.177,0,0,0,333.867,183.54Z" transform="translate(-327.514 -181.34)" fill="#b2b2b3"/>
            <path id="Path_4903" data-name="Path 4903" d="M336.614,183.368a.177.177,0,0,0-.176.176v4.385q.178-.01.352-.023v-4.361A.177.177,0,0,0,336.614,183.368Z" transform="translate(-329.625 -181.208)" fill="#b2b2b3"/>
            <path id="Path_4904" data-name="Path 4904" d="M339.361,183.073a.177.177,0,0,0-.176.176v4.405c.119-.011.237-.023.352-.037v-4.369A.177.177,0,0,0,339.361,183.073Z" transform="translate(-331.735 -180.981)" fill="#b2b2b3"/>
            <path id="Path_4905" data-name="Path 4905" d="M342.167,182.72a.176.176,0,0,0-.176.176v4.413q.179-.025.352-.053V182.9A.176.176,0,0,0,342.167,182.72Z" transform="translate(-333.891 -180.71)" fill="#b2b2b3"/>
            <path id="Path_4906" data-name="Path 4906" d="M344.914,182.214a.177.177,0,0,0-.176.176v4.427q.18-.034.352-.071V182.39A.177.177,0,0,0,344.914,182.214Z" transform="translate(-336.002 -180.321)" fill="#b2b2b3"/>
            <path id="Path_4907" data-name="Path 4907" d="M347.544,181.892a.177.177,0,0,0-.176.176v4.37c.121-.03.239-.061.352-.093v-4.277A.177.177,0,0,0,347.544,181.892Z" transform="translate(-338.022 -180.074)" fill="#b2b2b3"/>
            <path id="Path_4908" data-name="Path 4908" d="M350.233,181.126a.176.176,0,0,0-.176.176v4.37q.185-.061.352-.127V181.3A.176.176,0,0,0,350.233,181.126Z" transform="translate(-340.088 -179.485)" fill="#b2b2b3"/>
            <path id="Path_4909" data-name="Path 4909" d="M352.688,180.241a.177.177,0,0,0-.176.176v4.357a3.8,3.8,0,0,0,.352-.179v-4.178A.177.177,0,0,0,352.688,180.241Z" transform="translate(-341.974 -178.805)" fill="#b2b2b3"/>
            <path id="Path_4910" data-name="Path 4910" d="M355.026,178.826a.177.177,0,0,0-.176.176v4.384a1.538,1.538,0,0,0,.352-.329V179A.177.177,0,0,0,355.026,178.826Z" transform="translate(-343.771 -177.718)" fill="#b2b2b3"/>
          </g>
          <path id="Path_4911" data-name="Path 4911" d="M322.059,180.736h0c.466.038.955.059,1.459.059,3.2,0,5.793-.82,5.793-1.832v-4.918h-4.26c-1.335.313-2.454.573-2.454.573l-1.649,1.068a28.894,28.894,0,0,0,5.512.428c1.912-.075,2.076-.334,2.076,1.845S325.364,180.715,322.059,180.736Z" transform="translate(-312.817 -172.213)" fill="#ccc" opacity="0.77" style="mix-blend-mode: multiply;isolation: isolate"/>
          <ellipse id="Ellipse_38" data-name="Ellipse 38" cx="5.793" cy="1.832" rx="5.793" ry="1.832" transform="translate(4.907 0)" fill="#e5e6e6"/>
          <path id="Path_4912" data-name="Path 4912" d="M336.781,167.972c0,1.057-2.694,1.832-4.744,1.832,3.2,0,5.793-.82,5.793-1.832s-2.594-1.832-5.793-1.832C334.414,166.14,336.781,166.914,336.781,167.972Z" transform="translate(-321.337 -166.14)" fill="#ccc" opacity="0.77" style="mix-blend-mode: multiply;isolation: isolate"/>
          <path id="Path_4913" data-name="Path 4913" d="M310.56,170.128s-2.757-.608-2.519-1.628,3.855-1.439,4.442-1.421c0,0-3.709.616-3.9,1.385S310.56,170.128,310.56,170.128Z" transform="translate(-302.89 -166.861)" fill="#fff"/>
          <path id="Path_4914" data-name="Path 4914" d="M302.533,191.3s-1.012.373-.911,1.266,2.7,2.11,6.22,2.269a27.5,27.5,0,0,1-4.741-1.476C301.768,192.664,301.969,191.826,302.533,191.3Z" transform="translate(-297.964 -185.469)" fill="#fff"/>
          <path id="Path_4915" data-name="Path 4915" d="M307.933,201.765c2.032-1.477-3.481-1.491-6.249-2.246-2.541-.693-3.273-1.412-3.4-2.382a6.164,6.164,0,0,0-.3,2.171s.109,2.524,7.888,2.524C306.626,201.833,307.312,201.808,307.933,201.765Z" transform="translate(-295.165 -189.955)" fill="#e5e6e6"/>
          <path id="Path_4916" data-name="Path 4916" d="M289.363,199.632s-2.431.878-2.022,2.132,3.852,2.932,9.851,3.16a46.364,46.364,0,0,1-7-1.739C287.75,202.228,287.75,200.7,289.363,199.632Z" transform="translate(-286.961 -191.872)" fill="#fff" opacity="0.25"/>
        </g>
        <g id="Group_3477" data-name="Group 3477" transform="translate(21.462 57.959)">
          <g id="Group_3472" data-name="Group 3472" transform="translate(8.068 1.758)">
            <path id="Path_4917" data-name="Path 4917" d="M232.224,307.248v2.359c0,1.248,2.4,2.26,5.365,2.26s5.365-1.012,5.365-2.26v-2.359Z" transform="translate(-232.224 -304.988)" fill="#ccb1bd"/>
            <path id="Path_4918" data-name="Path 4918" d="M250.846,311.722c2.028-.322,3.471-1.147,3.471-2.115v-2.359h-2.685c-2.11.96-4.618,2.108-4.618,2.108a10.8,10.8,0,0,0,4.148.2c2.532-.3,2.44.521,1.888,1.133A4.405,4.405,0,0,1,250.846,311.722Z" transform="translate(-243.588 -304.988)" fill="#b69ea9"/>
            <path id="Path_4919" data-name="Path 4919" d="M235.188,312.051a4.568,4.568,0,0,0,1.159.6v-3.661h-1.159Z" transform="translate(-234.501 -306.325)" fill="#fff" opacity="0.25"/>
            <path id="Path_4920" data-name="Path 4920" d="M242.014,314c.185.055.378.106.58.151v-3.587h-.58Z" transform="translate(-239.746 -307.535)" fill="#fff" opacity="0.25"/>
            <ellipse id="Ellipse_39" data-name="Ellipse 39" cx="5.365" cy="2.26" rx="5.365" ry="2.26" fill="#e5c5d2"/>
            <path id="Path_4921" data-name="Path 4921" d="M252.407,299.754c0-1.248-2.4-2.26-5.365-2.26l-.181,0c1.475.075,5.286,1.038,3.893,2.662s-6.226,1.593-6.226,1.593h0a11.612,11.612,0,0,0,2.514.263C250,302.014,252.407,301,252.407,299.754Z" transform="translate(-241.677 -297.494)" fill="#d9bcc8"/>
            <path id="Path_4922" data-name="Path 4922" d="M245.192,302.075l3.772-4.232q-.338-.055-.7-.09l-3.741,4.2Q244.848,302.021,245.192,302.075Z" transform="translate(-241.677 -297.693)" fill="#b69eaa"/>
            <path id="Path_4923" data-name="Path 4923" d="M245.188,302.057c.166.034.336.067.511.094l3.772-4.232c-.161-.026-.327-.048-.5-.067Z" transform="translate(-242.184 -297.769)" fill="#9a8690"/>
            <path id="Path_4924" data-name="Path 4924" d="M234.741,301.61c-1.046-.821-1.453-1.622.386-2.4s3.852-.869,3.713-.354-3.31.386-3.519,1.384,1.03,1.883.386,1.786A1.808,1.808,0,0,1,234.741,301.61Z" transform="translate(-233.474 -298.295)" fill="#f1d3dd"/>
          </g>
          <g id="Group_3473" data-name="Group 3473" transform="translate(9.44 6.265)">
            <path id="Path_4925" data-name="Path 4925" d="M238.149,326.7v2.359c0,1.248,2.4,2.26,5.365,2.26s5.365-1.012,5.365-2.26V326.7Z" transform="translate(-238.149 -324.441)" fill="#ccb1bd"/>
            <path id="Path_4926" data-name="Path 4926" d="M256.771,331.175c2.028-.323,3.471-1.148,3.471-2.115V326.7h-2.685c-2.111.96-4.618,2.108-4.618,2.108a10.8,10.8,0,0,0,4.148.2c2.532-.3,2.44.521,1.888,1.133A4.409,4.409,0,0,1,256.771,331.175Z" transform="translate(-249.513 -324.441)" fill="#b69ea9"/>
            <path id="Path_4927" data-name="Path 4927" d="M241.112,331.5a4.572,4.572,0,0,0,1.159.6v-3.661h-1.159Z" transform="translate(-240.425 -325.778)" fill="#fff" opacity="0.25"/>
            <path id="Path_4928" data-name="Path 4928" d="M247.939,333.452c.185.055.378.106.579.151v-3.587h-.579Z" transform="translate(-245.671 -326.988)" fill="#fff" opacity="0.25"/>
            <ellipse id="Ellipse_40" data-name="Ellipse 40" cx="5.365" cy="2.26" rx="5.365" ry="2.26" fill="#e5c5d2"/>
            <path id="Path_4929" data-name="Path 4929" d="M258.332,319.207c0-1.248-2.4-2.26-5.365-2.26l-.181,0c1.475.075,5.286,1.038,3.893,2.662s-6.226,1.593-6.226,1.593h0a11.611,11.611,0,0,0,2.514.263C255.93,321.467,258.332,320.455,258.332,319.207Z" transform="translate(-247.602 -316.947)" fill="#d9bcc8"/>
            <path id="Path_4930" data-name="Path 4930" d="M251.117,321.529l3.772-4.232c-.225-.036-.457-.066-.7-.09l-3.741,4.2Q250.773,321.475,251.117,321.529Z" transform="translate(-247.602 -317.146)" fill="#b69eaa"/>
            <path id="Path_4931" data-name="Path 4931" d="M251.112,321.51c.166.035.336.067.512.094l3.772-4.232c-.161-.026-.327-.048-.495-.067Z" transform="translate(-248.108 -317.222)" fill="#9a8690"/>
            <path id="Path_4932" data-name="Path 4932" d="M240.665,321.064c-1.046-.821-1.453-1.622.386-2.4s3.852-.869,3.712-.354-3.31.386-3.519,1.384,1.03,1.883.386,1.786A1.808,1.808,0,0,1,240.665,321.064Z" transform="translate(-239.399 -317.748)" fill="#f1d3dd"/>
          </g>
          <g id="Group_3474" data-name="Group 3474" transform="translate(14.945 0)">
            <path id="Path_4933" data-name="Path 4933" d="M262.842,298.978l-.868,2.193c-.459,1.161,1.4,2.985,4.157,4.075s5.361,1.033,5.82-.128l.868-2.193Z" transform="translate(-261.905 -296.876)" fill="#ccb1bd"/>
            <path id="Path_4934" data-name="Path 4934" d="M279.049,315.623c2,.446,3.65.21,4.006-.69l.868-2.193-2.5-.988c-2.315.116-5.069.261-5.069.261a10.8,10.8,0,0,0,3.783,1.713c2.467.648,2.077,1.382,1.339,1.749A4.409,4.409,0,0,1,279.049,315.623Z" transform="translate(-273.008 -306.69)" fill="#b69ea9"/>
            <path id="Path_4935" data-name="Path 4935" d="M263.2,304.534a4.563,4.563,0,0,0,.857.983l1.347-3.4-1.077-.426Z" transform="translate(-262.904 -298.958)" fill="#fff" opacity="0.25"/>
            <path id="Path_4936" data-name="Path 4936" d="M268.379,308.857q.227.179.483.354l1.32-3.335-.539-.213Z" transform="translate(-266.879 -302.012)" fill="#fff" opacity="0.25"/>
            <ellipse id="Ellipse_41" data-name="Ellipse 41" cx="2.26" cy="5.365" rx="2.26" ry="5.365" transform="translate(0.106 4.203) rotate(-68.413)" fill="#e5c5d2"/>
            <path id="Path_4937" data-name="Path 4937" d="M282.282,302.287c.459-1.161-1.4-2.985-4.157-4.076l-.169-.065c1.344.612,4.533,2.91,2.641,3.907-1.909,1.006-6.376-.809-6.376-.809h0a11.623,11.623,0,0,0,2.241,1.17C279.217,303.505,281.823,303.448,282.282,302.287Z" transform="translate(-271.367 -296.238)" fill="#d9bcc8"/>
            <path id="Path_4938" data-name="Path 4938" d="M274.793,303.5l5.065-2.548q-.294-.175-.614-.34l-5.022,2.526Q274.492,303.326,274.793,303.5Z" transform="translate(-271.367 -298.134)" fill="#b69eaa"/>
            <path id="Path_4939" data-name="Path 4939" d="M274.784,303.543c.142.093.288.186.441.276l5.065-2.548c-.14-.083-.287-.164-.436-.244Z" transform="translate(-271.8 -298.45)" fill="#9a8690"/>
            <path id="Path_4940" data-name="Path 4940" d="M267.935,298.293c-.671-1.148-.754-2.043,1.241-2.088s3.9.609,3.582,1.037-3.22-.859-3.782-.008.265,2.13-.3,1.8A1.809,1.809,0,0,1,267.935,298.293Z" transform="translate(-266.209 -294.744)" fill="#f1d3dd"/>
          </g>
          <g id="Group_3475" data-name="Group 3475" transform="translate(0 6.325)">
            <ellipse id="Ellipse_42" data-name="Ellipse 42" cx="4.691" cy="2.604" rx="4.691" ry="2.604" fill="#9ddcf9"/>
            <path id="Path_4941" data-name="Path 4941" d="M206.893,321.368c0-.883-.793-1.663-2-2.134,1.845.89,1.219,2.992-1.547,3.678-2.525.627-5.209,0-5.809-1.291.229,1.319,2.232,2.35,4.668,2.35C204.793,323.971,206.893,322.806,206.893,321.368Z" transform="translate(-197.504 -318.764)" fill="#8fc9e3"/>
            <path id="Path_4942" data-name="Path 4942" d="M201.126,318.5c-1.523.327-2.723,1.313-2.042,2.386s5.708,1.206,6.4-.505S203.616,317.969,201.126,318.5Z" transform="translate(-198.545 -318.068)" fill="#b1e3fa"/>
            <path id="Path_4943" data-name="Path 4943" d="M201.548,320.913c-.388-.3.246-1.284,1.665-1.481s2.794-.082,2.823.324-1.65-.044-3.055.376C202.159,320.378,202.011,321.273,201.548,320.913Z" transform="translate(-200.502 -318.844)" fill="#d9f1fd"/>
          </g>
          <g id="Group_3476" data-name="Group 3476" transform="translate(17.929 9.294)">
            <ellipse id="Ellipse_43" data-name="Ellipse 43" cx="4.691" cy="2.604" rx="4.691" ry="2.604" fill="#9ddcf9"/>
            <path id="Path_4944" data-name="Path 4944" d="M284.272,334.179c0-.883-.793-1.663-2-2.134,1.845.89,1.219,2.992-1.547,3.678-2.525.627-5.208,0-5.808-1.291.229,1.319,2.232,2.35,4.668,2.35C282.172,336.782,284.272,335.617,284.272,334.179Z" transform="translate(-274.883 -331.575)" fill="#8fc9e3"/>
            <path id="Path_4945" data-name="Path 4945" d="M278.5,331.315c-1.522.327-2.723,1.312-2.041,2.386s5.708,1.207,6.4-.505S281,330.781,278.5,331.315Z" transform="translate(-275.924 -330.879)" fill="#b1e3fa"/>
            <path id="Path_4946" data-name="Path 4946" d="M278.926,333.724c-.389-.3.246-1.284,1.665-1.481s2.794-.082,2.823.324-1.65-.044-3.055.376C279.538,333.189,279.39,334.085,278.926,333.724Z" transform="translate(-277.88 -331.655)" fill="#d9f1fd"/>
          </g>
        </g>
      </g>
    </g>
  </g>
</svg>
