<svg id="Group_4200" data-name="Group 4200" xmlns="http://www.w3.org/2000/svg" width="28.151" height="28.151" viewBox="0 0 28.151 28.151">
  <g id="Group_4198" data-name="Group 4198">
    <path id="Path_9266" data-name="Path 9266" d="M984.884,399.345a14.075,14.075,0,1,1,14.076-14.075A14.091,14.091,0,0,1,984.884,399.345Zm0-26.639a12.563,12.563,0,1,0,12.564,12.564A12.578,12.578,0,0,0,984.884,372.706Z" transform="translate(-970.808 -371.194)" fill="#fafafa"/>
  </g>
  <g id="Group_4199" data-name="Group 4199" transform="translate(10.141 5.638)">
    <path id="Path_9267" data-name="Path 9267" d="M992.2,390.63v8.158a.213.213,0,0,0,.213.212h3.03a.212.212,0,0,0,.212-.212V390.5h2.2a.212.212,0,0,0,.212-.195l.211-2.5a.213.213,0,0,0-.212-.231h-2.407V385.8a.752.752,0,0,1,.752-.752H998.1a.212.212,0,0,0,.212-.212v-2.5a.213.213,0,0,0-.212-.212h-2.86a3.039,3.039,0,0,0-3.039,3.039v2.408h-1.515a.212.212,0,0,0-.212.212v2.5a.212.212,0,0,0,.212.212H992.2Z" transform="translate(-990.472 -382.127)" fill="#fafafa" fill-rule="evenodd"/>
  </g>
</svg>
