<svg id="Group_4205" data-name="Group 4205" xmlns="http://www.w3.org/2000/svg" width="27.967" height="27.967" viewBox="0 0 27.967 27.967">
  <path id="Path_9270" data-name="Path 9270" d="M1050.875,399.339a13.984,13.984,0,1,1,13.983-13.983A14,14,0,0,1,1050.875,399.339Zm0-26.639a12.655,12.655,0,1,0,12.655,12.655A12.67,12.67,0,0,0,1050.875,372.7Zm4.715,6.982a1.035,1.035,0,1,0,1.035,1.035A1.035,1.035,0,0,0,1055.59,379.682Zm-4.6,1.327a4.347,4.347,0,1,0,4.347,4.347A4.351,4.351,0,0,0,1050.99,381.009Zm0,7.131a2.784,2.784,0,1,1,2.784-2.784A2.787,2.787,0,0,1,1050.99,388.14Zm8.771-6.4a5.3,5.3,0,0,0-5.3-5.3h-7a5.3,5.3,0,0,0-5.3,5.3v7a5.3,5.3,0,0,0,5.3,5.3h7a5.3,5.3,0,0,0,5.3-5.3Zm-1.661,7a3.641,3.641,0,0,1-3.641,3.641h-7a3.641,3.641,0,0,1-3.641-3.641v-7a3.641,3.641,0,0,1,3.641-3.641h7a3.641,3.641,0,0,1,3.641,3.641Z" transform="translate(-1036.891 -371.372)" fill="#fafafa"/>
</svg>
