<svg xmlns="http://www.w3.org/2000/svg" width="78.598" height="103.812" viewBox="0 0 78.598 103.812">
  <g id="Group_1348" data-name="Group 1348" transform="translate(0 0)">
    <path id="Path_1" data-name="Path 1" d="M334.992,888.031a11.966,11.966,0,0,1,5.011-.005,8.468,8.468,0,0,1,4.336,3.955,7.3,7.3,0,0,1,.583,4.715c-.2.932.133,1.155.924,1.333a35.351,35.351,0,0,1,15.008,7.352A35.994,35.994,0,0,1,373.6,927.094c.094.506.214.779.806.876a2.566,2.566,0,0,1,2.4,2.975,2.666,2.666,0,0,1-2.938,2.386q-13.278.039-26.556.058-22.86.057-45.72.129a3.054,3.054,0,0,1-2.755-1.1,2.628,2.628,0,0,1,1.736-4.2c.7-.123.863-.42.981-1.03a36.059,36.059,0,0,1,18.023-25.4,33.14,33.14,0,0,1,9.475-3.7c.859-.193,1.175-.425.976-1.433a7.471,7.471,0,0,1,4.472-8.383C334.668,888.2,334.829,888.112,334.992,888.031Zm-2.281,35.348.232.168c1.363-.948,2.751-1.863,4.078-2.86a1.161,1.161,0,0,1,1.619.022c1.125.829,2.287,1.606,3.447,2.386.211.142.425.49.7.31.289-.192.014-.5-.055-.743a37.444,37.444,0,0,0-1.139-3.651,1.562,1.562,0,0,1,.722-2.193c1.25-.834,2.42-1.786,3.68-2.73a1.362,1.362,0,0,0-.965-.227c-1.459-.038-2.918-.081-4.377-.1a1.018,1.018,0,0,1-1.085-.743c-.536-1.384-.987-2.792-1.412-4.21-.064-.212-.062-.558-.382-.537-.282.018-.319.341-.4.561-.479,1.378-.97,2.752-1.405,4.144a1.007,1.007,0,0,1-1.115.815c-1.429,0-2.858.043-4.286.083-.305.008-.655-.078-.95.266,1.38,1.033,2.688,2.068,4.058,3.013a1.154,1.154,0,0,1,.46,1.549C333.629,920.249,333.181,921.818,332.711,923.379Zm-6.31-8.437-.26.021c-.171.479-.357.954-.51,1.439-.5,1.569-.493,1.57-2.124,1.607a1.448,1.448,0,0,0-.273.008c-.448.1-1.158-.267-1.3.237-.128.459.6.666.974.949,1.473,1.123,1.469,1.109.969,2.625-.165.5-.679,1.185-.265,1.486.387.282.916-.4,1.348-.707,1.432-1.008,1.424-1.02,2.788.062a1.786,1.786,0,0,1,.137.12c.326.318.829.752,1.125.565.369-.233-.07-.754-.192-1.129-.6-1.863-.618-1.859.884-3.059.119-.095.239-.188.359-.281a.461.461,0,0,0,.151-.567.439.439,0,0,0-.475-.329c-.395.011-.794-.042-1.184,0a1.167,1.167,0,0,1-1.434-1.018A20.4,20.4,0,0,0,326.4,914.941Zm20.954,8.513a12.454,12.454,0,0,0,2.18-1.432.9.9,0,0,1,1.23,0c.555.423,1.144.8,1.724,1.193.142.1.322.257.472.068a.568.568,0,0,0,0-.427c-.2-.67-.393-1.344-.638-2a.809.809,0,0,1,.354-1.085c.575-.4,1.125-.83,1.681-1.254.141-.107.328-.22.219-.439-.078-.155-.255-.136-.4-.138-.639-.011-1.278-.042-1.916-.021a1.047,1.047,0,0,1-1.192-.856c-.2-.664-.323-1.41-1.026-1.8-.012-.007-.007-.059,0-.086s.031-.064.054-.07c.082-.022.12.039.055.08-.705.446-.629,1.26-.891,1.909-.231.573-.523.91-1.206.846a13.821,13.821,0,0,0-1.732.021c-.2.007-.475-.082-.568.165-.117.31.2.4.379.538a11.058,11.058,0,0,0,1.254.911,1.171,1.171,0,0,1,.546,1.61A8.572,8.572,0,0,0,347.355,923.454Zm-10-26.4v.006c.454,0,.909,0,1.363,0,.325,0,.6-.076.693-.447a3.836,3.836,0,0,0,.1-1.974,2.114,2.114,0,0,0-2.411-1.459,2.152,2.152,0,0,0-1.748,2.476c.153,1.414.155,1.416,1.91,1.4Z" transform="translate(-298.302 -887.763)" fill="#fcf632"/>
    <path id="Path_2" data-name="Path 2" d="M338.2,1407.048q18.072,0,36.144,0c1.96,0,3.109.975,3.142,2.653a2.459,2.459,0,0,1-2.168,2.625c-1.78.051-3.524.5-5.278.5-22.727-.077-45.452-.29-68.18-.244a2.659,2.659,0,0,1-1.409-5.038,3.915,3.915,0,0,1,1.787-.268q9.4-.03,18.8-.056,8.58-.014,17.159,0Z" transform="translate(-298.885 -1344.235)" fill="#fcf632"/>
    <path id="Path_3" data-name="Path 3" d="M500.219,1460.235a4.466,4.466,0,0,0,1.606-1,7.267,7.267,0,0,1,5.163-1.622c.167.022.37-.057.535.287l-3.458,1.557.092.231c.8-.285,1.614-.53,2.391-.863a11.364,11.364,0,0,1,6.088-1.172c1.36.183,1.891.988,1.315,2.09a1.757,1.757,0,0,1-1.013.718c-4.278,1.9-8.5,3.943-12.859,5.652a13.343,13.343,0,0,0-6.228,5.181c-2.408,3.472-4.958,6.846-7.433,10.272-.33.456-.617.6-1.11.221q-3.351-2.6-6.728-5.166c-.38-.29-.519-.617-.184-1,2.507-2.858,2.007-6.5,2.617-9.86a6.472,6.472,0,0,0-.735-4.043,1.922,1.922,0,0,0-1.558-1.234,12.037,12.037,0,0,1-1.691-.372,1.258,1.258,0,0,1-.883-1.255c-.049-.563.4-.678.793-.848a4.587,4.587,0,0,1,4.033-.007,7.472,7.472,0,0,0,1.437.58c2.313.581,3.37,2.318,4.07,4.376.166.488.354.727.906.565a69.056,69.056,0,0,1,11.231-1.79,4.392,4.392,0,0,0,1.772-.626c-.56-.6-1.084-.446-1.607.043a1.384,1.384,0,0,1-1.1.345,3.259,3.259,0,0,0-2.079.2.344.344,0,0,1-.486-.09c-.093-.183.055-.346.173-.485.823-.975,1.639-1.958,2.478-2.919a1.453,1.453,0,0,1,1.519-.61c1.145.361,2.263-.041,3.391,0a1.091,1.091,0,0,1,.883.224,12.19,12.19,0,0,0-3.337,2.418c-.04.031-.2,0-.061.123Z" transform="translate(-454.631 -1388.622)" fill="#fcf632"/>
    <path id="Path_4" data-name="Path 4" d="M437.057,1622.765a4.48,4.48,0,0,1-.87,1.255c-.448.493-.688.927.053,1.385.439.271.35.645.065,1.009-1.05,1.338-2.1,2.674-3.138,4.024a.685.685,0,0,1-1.139.146q-5.755-4.474-11.538-8.911c-.521-.4-.51-.707-.122-1.184,1.033-1.274,2.031-2.577,3.036-3.873.315-.406.629-.649,1.127-.233.441.369.743.118,1.057-.258,1.238-1.486,1.249-1.48,2.819-.279,2.605,1.993,5.214,3.983,7.807,5.992C436.533,1622.085,436.964,1622.268,437.057,1622.765Z" transform="translate(-405.357 -1527.011)" fill="#fcf632"/>
    <path id="Path_5" data-name="Path 5" d="M663.632,1283.526a.441.441,0,0,1,.56-.275,2.687,2.687,0,0,0,1.926-.01c.179-.067.478-.069.555.171.093.288-.217.318-.392.393a.9.9,0,0,0-.538.961c.018,2.555.056,5.111.031,7.665-.008.808.629.985,1.319,1.467H663.7c1.3-.51.974-1.612.992-2.573.008-.426-.007-.852-.01-1.278-.011-1.542-.013-1.552-1.528-1.2-.946.217-1.882.476-2.826.7a.7.7,0,0,0-.608.845,10.831,10.831,0,0,1,.01,1.368c-.033.878-.111,1.767,1.207,1.969l-.178.2h-3.35c1.956-.942,1.018-2.5,1.19-3.776.04-.3-.228-.385-.49-.426a5.222,5.222,0,0,1-.976-.192,2.718,2.718,0,0,1-1.309-3.492.8.8,0,0,1,1.087-.394c.577.272.225.61.046.962a1.533,1.533,0,0,0,.948,2.374c.441.107.713.033.7-.5q-.041-1.87-.051-3.741c0-.638-.472-.858-1.006-1.036a5.317,5.317,0,0,1,3.144-.094c-1.053.289-1.025,1.072-.993,1.889.035.881.026,1.764.005,2.646-.013.57.109.856.779.686,1.205-.307,2.424-.563,3.643-.813.418-.086.536-.305.52-.7-.036-.881-.084-1.765-.05-2.645C664.627,1283.964,663.944,1283.9,663.632,1283.526Z" transform="translate(-612.372 -1235.371)" fill="#fcf632"/>
    <path id="Path_6" data-name="Path 6" d="M355.87,1285.851c-1.37.394-1.093,1.412-1.094,2.292,0,2.16.017,4.319.015,6.479,0,.626.11,1.156.822,1.334.144.036.318.088.275.286s-.218.182-.369.182c-.93,0-1.86,0-3,0,2.113-1.413.876-3.338,1.158-4.964.053-.308-.221-.368-.506-.323a38.841,38.841,0,0,0-3.972.92.563.563,0,0,0-.473.658c.018.364,0,.73.016,1.094.028.956-.332,2.075,1.254,2.386l-.224.187h-3.379c1.983-.849,1.061-2.377,1.24-3.611.073-.5-.262-.573-.68-.614a2.191,2.191,0,0,1-1.966-1.121,5.086,5.086,0,0,1-.164-2.377.765.765,0,0,1,1.131-.568c.7.278.205.653.026,1a1.538,1.538,0,0,0,.938,2.328c.413.113.713.111.7-.465-.024-1.216-.016-2.433-.013-3.649a1,1,0,0,0-.7-1.052c-.138-.05-.307-.109-.243-.306.022-.067.15-.16.206-.146a27.5,27.5,0,0,0,2.87.13c-1.28.408-1,1.382-1.007,2.229s.022,1.7-.007,2.555c-.019.546.171.654.7.584,1.31-.171,2.558-.591,3.84-.866.409-.088.428-.359.425-.681-.008-.79-.024-1.581-.009-2.372a1.061,1.061,0,0,0-.673-1.166c-.14-.054-.326-.087-.3-.275.011-.088.181-.242.234-.225A16.87,16.87,0,0,0,355.87,1285.851Z" transform="translate(-339.141 -1237.579)" fill="#fcf632"/>
    <path id="Path_7" data-name="Path 7" d="M828.142,1326.733h-2.367c1.021-1.455.645-3.017.365-4.556a.948.948,0,0,0-.907-.87,1.445,1.445,0,0,0-1.345.607,5.154,5.154,0,0,0,.238,4.8h-2.557c1.092-.641.773-1.669.753-2.583-.019-.889.355-1.916-.732-2.585l1.3-.5c.057-.022.146-.076.167-.057.785.719,1.419-.221,2.14-.19a2.025,2.025,0,0,1,1.564.454c.316.34.567.261.93.008a2.232,2.232,0,0,1,3.723,1.626c.119.931.082,1.881.124,2.821a3.3,3.3,0,0,0,.446,1.83c.119.17.35.348.076.517a.492.492,0,0,1-.665-.1c-.418-.632-1.087-1.1-1.041-2.025a29.982,29.982,0,0,0-.087-3.279c-.057-.944-.5-1.406-1.232-1.39a1.662,1.662,0,0,0-1.556,1.558c0,.7.023,1.4,0,2.1A1.893,1.893,0,0,0,828.142,1326.733Z" transform="translate(-758.274 -1268.344)" fill="#fcf632"/>
    <path id="Path_8" data-name="Path 8" d="M506.956,1323.171c.564-.207.96-.354,1.357-.5.111-.04.315-.114.329-.089.49.877.892.049,1.316-.068a2.2,2.2,0,0,1,2.375.364.477.477,0,0,0,.765.037,2.3,2.3,0,0,1,2.547-.4,2.565,2.565,0,0,1,1.3,2.324c.125,1.116-.044,2.249.15,3.364.094.539.162,1.1.96,1.233a1.588,1.588,0,0,1-2.156-1.52c-.093-1.026-.061-2.064-.09-3.1-.034-1.188-.541-2-1.276-1.93-1.017.1-1.551.739-1.6,1.936-.025.637.011,1.277-.019,1.914a1.771,1.771,0,0,0,.834,1.566h-2.673a1.621,1.621,0,0,0,.731-1.747c-.029-.758.029-1.522-.031-2.277-.049-.617-.24-1.23-.982-1.355a1.39,1.39,0,0,0-1.637,1.007,8.086,8.086,0,0,0-.162,3.52c.045.39.4.567.79.905a26.794,26.794,0,0,0-2.729.052c1.1-.678.782-1.717.738-2.623S508.235,1323.787,506.956,1323.171Z" transform="translate(-481.717 -1269.728)" fill="#fcf632"/>
    <path id="Path_9" data-name="Path 9" d="M449.033,1331.848c-.712-.12-1.494.563-2.018-.328-.11-.187-.213.041-.322.132a2.182,2.182,0,0,1-3.625-1.013,9.07,9.07,0,0,1-.269-2.347c-.044-.58-.1-1.146-.716-1.413.127-.3.374-.244.563-.306,1.251-.41,1.246-.409,1.266.983a11.355,11.355,0,0,0,.189,2.9c.181.656.5,1.221,1.257,1.255a1.538,1.538,0,0,0,1.532-1.2,7.92,7.92,0,0,0,.186-2.891c0-.465-.5-.552-.764-.869a11.03,11.03,0,0,0,1.21-.48c.548-.295.706-.1.7.447-.009,1.065.011,2.13,0,3.2C448.216,1330.659,448.169,1331.4,449.033,1331.848Z" transform="translate(-424.69 -1273.114)" fill="#fcf632"/>
    <path id="Path_10" data-name="Path 10" d="M759.127,1323.284c.036-.044.063-.114.109-.128,1.728-.553,1.729-.553,1.735,1.3,0,.638.012,1.277-.009,1.914a2.01,2.01,0,0,0,.751,2.026c-.667-.09-1.356.449-1.923-.265-.2-.251-.365.058-.52.164a2.259,2.259,0,0,1-3.645-1.661c-.08-.693-.128-1.392-.148-2.09a1.105,1.105,0,0,0-.853-1.174c.595-.25,1.044-.462,1.509-.63s.408.217.419.466c.044.971.056,1.943.107,2.913a3.271,3.271,0,0,0,.31,1.323,1.278,1.278,0,0,0,2.121.373A3.748,3.748,0,0,0,759.127,1323.284Z" transform="translate(-699.427 -1270.086)" fill="#fcf632"/>
    <path id="Path_11" data-name="Path 11" d="M607.775,1359.124c-.029.556-.3.94-.868.967a.864.864,0,0,1-.953-.965.832.832,0,0,1,.9-.913A.861.861,0,0,1,607.775,1359.124Z" transform="translate(-568.74 -1301.307)" fill="#fcf632"/>
    <path id="Path_12" data-name="Path 12" d="M598.377,889.1c.06-.079.111-.064.156.014l-.082.033Z" transform="translate(-562.08 -888.89)" fill="#fcf632"/>
  </g>
</svg>
