<svg id="Group_4204" data-name="Group 4204" xmlns="http://www.w3.org/2000/svg" width="28.151" height="28.151" viewBox="0 0 28.151 28.151">
  <g id="Group_4201" data-name="Group 4201">
    <path id="Path_9268" data-name="Path 9268" d="M855.347,399.345a14.075,14.075,0,1,1,14.076-14.075A14.091,14.091,0,0,1,855.347,399.345Zm0-26.639a12.563,12.563,0,1,0,12.563,12.564A12.578,12.578,0,0,0,855.347,372.706Z" transform="translate(-841.272 -371.194)" fill="#fafafa"/>
  </g>
  <g id="Group_4203" data-name="Group 4203" transform="translate(4.884 5.395)">
    <g id="Group_4202" data-name="Group 4202">
      <path id="Path_9269" data-name="Path 9269" d="M850.742,395.2v-.288a.761.761,0,0,1,.435-.292,4.929,4.929,0,0,0,3.293-2.535c.643-1.066.539-1.31-.645-1.729-.068-.024-.137-.044-.2-.071a2.529,2.529,0,0,1-.721-.4c-.531-.461-.217-1.125.409-1.276.457-.11.855.184,1.3.239.3.037.415-.063.379-.379a15.174,15.174,0,0,1-.053-2.448,4.144,4.144,0,0,1,2.137-3.513,5.392,5.392,0,0,1,5.784-.018,4.125,4.125,0,0,1,2.127,3.175,14.13,14.13,0,0,1-.007,2.771c-.031.4.05.474.447.382.493-.115.905-.369,1.417-.144a.781.781,0,0,1,.505.679.751.751,0,0,1-.279.528,2.893,2.893,0,0,1-.832.437c-.222.09-.454.16-.67.261-.448.21-.576.487-.367.929a5.14,5.14,0,0,0,3.513,3.1.823.823,0,0,1,.506.306v.288a1.335,1.335,0,0,1-.787.647,3.6,3.6,0,0,1-1.037.293.79.79,0,0,0-.839.77c-.073.495-.221.565-.726.524-.12-.01-.238-.032-.356-.053a3.208,3.208,0,0,0-2.727.581,5.989,5.989,0,0,1-.506.346,3.783,3.783,0,0,1-4.246.158c-.394-.23-.767-.495-1.15-.745a2.55,2.55,0,0,0-1.036-.38,6.667,6.667,0,0,0-1.756.108c-.3.033-.589-.052-.606-.362-.041-.747-.5-.929-1.127-1a3.206,3.206,0,0,1-.857-.267A1.257,1.257,0,0,1,850.742,395.2Z" transform="translate(-850.742 -381.655)" fill="#fafafa"/>
    </g>
  </g>
</svg>
