<?xml version="1.0" encoding="utf-8"?>
<!-- Generator: Adobe Illustrator 24.0.1, SVG Export Plug-In . SVG Version: 6.00 Build 0)  -->
<svg version="1.1" id="Layer_1" xmlns="http://www.w3.org/2000/svg" xmlns:xlink="http://www.w3.org/1999/xlink" x="0px" y="0px"
	 viewBox="0 0 1000 1000" style="enable-background:new 0 0 1000 1000;" xml:space="preserve">
<style type="text/css">
	.st0{fill:#02AA7C;}
	.st1{fill:#502C84;}
</style>
<g>
	<path class="st0" d="M603.8,549V440.5h18.4v8.7c5.6-7,13.9-10.8,24.2-10.8c21.2,0,36.4,16.9,36.4,41.1c0,24.2-15.3,41.4-36.4,41.4
		c-10.4,0-18.6-4-24.2-11V549H603.8z M622.2,469.5v20c3.9,8.1,10.9,14,21,14c12.2,0,20.4-9.1,20.4-24.1c0-14.8-8.2-23.8-20.4-23.8
		C633.1,455.7,626.1,461.2,622.2,469.5"/>
	<path class="st0" d="M694.7,496.3c0-13.2,8.2-22.4,21.8-24.1l31.3-4v-3.9c0-4.7-2.4-7.2-6.8-7.2h-39.3v-16.7h40
		c15.9,0,24.6,7.8,24.6,21.6v56.5h-18.6V509c-5.4,7.6-14.3,11.9-25.8,11.9C705.7,520.9,694.7,511,694.7,496.3 M726.4,505.9
		c9.4,0,18.1-5.3,21.3-13.1V483l-23.9,3.3c-6.6,0.9-10.3,4.4-10.3,10.1C713.5,502.5,718.2,505.9,726.4,505.9"/>
	<path class="st0" d="M779.7,532.3h13.4c5.1,0,7.4-2.1,9.1-6.9l2.4-6.9l-28.4-78.1h19.2l17.7,54.4h0.4l16.9-54.4h18.9l-31.1,89.7
		c-4.2,12.3-9.8,18.9-23.5,18.9h-15V532.3z"/>
	<path class="st1" d="M218.2,602.7c21.4,0,39-6.7,50.6-17.9c8.7-8.6,13.8-20.2,13.8-33.6c0-12.1-4.5-23-12.8-31.3
		c-8.3-8.3-20.2-14.4-35.2-17.3l-24.6-4.8c-10.2-1.9-16-7-16-14.1c0-9.3,9-15.7,23.4-15.7c9,0,16.7,2.9,21.8,8
		c3.2,3.5,5.4,8,6.1,13.1l35.5-8c-1-10.2-5.8-19.2-13.1-26.6C256,443,238.1,435.7,217,435.7c-19.5,0-35.8,6.4-47.1,16.6
		c-9.6,9-15,21.1-15,34.6c0,11.8,3.8,21.8,11.5,29.4c7.7,7.7,18.9,13.4,33.6,17l24.3,5.8c12.2,2.9,17.6,7.4,17.6,15.4
		c0,9.9-9,15.7-23.7,15.7c-10.6,0-19.2-3.5-24.6-9.3c-3.8-3.8-6.1-9-6.4-14.7l-36.5,8c1,10.9,6.1,20.5,13.8,28.2
		C176.6,595.1,196.2,602.7,218.2,602.7 M488.4,602.7c23.7,0,41.9-8.6,54.4-20.8c9.9-9.6,16-20.8,19.2-32.3l-37.4-12.5
		c-1.6,5.8-4.8,11.9-9.9,16.6c-6.1,5.8-14.4,9.9-26.3,9.9c-10.9,0-21.1-4.2-28.5-11.5c-7.4-7.7-11.9-18.9-11.9-33
		c0-14.4,4.5-25.3,11.9-33c7.3-7.4,17.3-11.2,28.2-11.2c11.5,0,19.5,3.8,25.3,9.6c4.8,4.8,7.7,10.9,9.6,17l38.1-12.8
		c-2.9-11.2-9-22.4-17.9-31.7c-12.8-12.5-31.4-21.4-56-21.4c-22.7,0-43.2,8.6-57.9,23.4c-14.7,15-23.7,35.9-23.7,60.2
		c0,24.3,9.3,45.1,24.3,60.2C444.5,594.1,465.3,602.7,488.4,602.7 M359.1,602.7c16.6,0,28.5-5.1,33.6-9.6v-34.6
		c-3.9,2.9-11.5,6.4-21.5,6.4c-7.1,0-12.2-1.6-16-5.1c-3.2-3.2-4.8-8.7-4.8-16V397.3h-42.3v43.2h84.5v41h-84.5v72.7
		c0,14.7,4.5,26.6,12.5,34.9C329.6,597.9,342.8,602.7,359.1,602.7"/>
</g>
</svg>
