<svg id="Group_4197" data-name="Group 4197" xmlns="http://www.w3.org/2000/svg" width="28.151" height="28.151" viewBox="0 0 28.151 28.151">
  <g id="Group_4190" data-name="Group 4190">
    <path id="Path_9260" data-name="Path 9260" d="M920.347,399.345a14.075,14.075,0,1,1,14.076-14.075A14.091,14.091,0,0,1,920.347,399.345Zm0-26.639a12.563,12.563,0,1,0,12.564,12.564A12.578,12.578,0,0,0,920.347,372.706Z" transform="translate(-906.272 -371.194)" fill="#fafafa"/>
  </g>
  <g id="Group_4196" data-name="Group 4196" transform="translate(5.821 7.319)">
    <g id="Group_4191" data-name="Group 4191">
      <path id="Path_9261" data-name="Path 9261" d="M933.9,387.005a6.749,6.749,0,0,1-1.657.473c.267-.045.661-.528.818-.724a3.052,3.052,0,0,0,.552-1.005c.015-.028.025-.064,0-.086a.093.093,0,0,0-.088.007,8.476,8.476,0,0,1-1.969.753.132.132,0,0,1-.136-.036,1.513,1.513,0,0,0-.172-.176,3.459,3.459,0,0,0-.954-.584,3.313,3.313,0,0,0-1.463-.236,3.5,3.5,0,0,0-1.387.392,3.573,3.573,0,0,0-1.119.914,3.437,3.437,0,0,0-.669,1.339,3.623,3.623,0,0,0-.035,1.414c.01.079,0,.09-.068.079a10.513,10.513,0,0,1-6.764-3.443c-.079-.09-.122-.09-.187.007a3.431,3.431,0,0,0,.585,4.053c.132.125.269.251.416.366a3.457,3.457,0,0,1-1.305-.366c-.079-.05-.119-.022-.125.068a2.039,2.039,0,0,0,.021.387,3.468,3.468,0,0,0,2.138,2.765,2,2,0,0,0,.434.133,3.864,3.864,0,0,1-1.28.04c-.093-.018-.129.029-.093.118a3.6,3.6,0,0,0,2.69,2.253c.122.021.244.021.366.05-.008.011-.015.011-.022.022a4.267,4.267,0,0,1-1.837.973,6.582,6.582,0,0,1-2.79.357c-.15-.022-.181-.021-.222,0s-.005.061.043.1c.19.126.384.237.581.344a9.194,9.194,0,0,0,1.865.746,9.933,9.933,0,0,0,9.644-2.255,10.119,10.119,0,0,0,2.668-7.382c0-.106.125-.165.2-.221a6.493,6.493,0,0,0,1.306-1.365.4.4,0,0,0,.081-.262v-.014C933.965,386.962,933.97,386.975,933.9,387.005Z" transform="translate(-917.559 -385.385)" fill="#fafafa"/>
    </g>
    <g id="Group_4192" data-name="Group 4192" transform="translate(4.872 13.455)">
      <path id="Path_9262" data-name="Path 9262" d="M927.006,411.475Z" transform="translate(-927.006 -411.475)" fill="#fafafa" fill-rule="evenodd"/>
    </g>
    <g id="Group_4193" data-name="Group 4193" transform="translate(4.747 13.455)">
      <path id="Path_9263" data-name="Path 9263" d="M926.888,411.475c-.022,0-.271,0,0,0Z" transform="translate(-926.763 -411.475)" fill="#fafafa" fill-rule="evenodd"/>
    </g>
    <g id="Group_4194" data-name="Group 4194" transform="translate(5.425 13.457)">
      <path id="Path_9264" data-name="Path 9264" d="M928.077,411.491c0-.028.29,0,0,0C928.077,411.477,928.112,411.491,928.077,411.491Z" transform="translate(-928.077 -411.479)" fill="#fafafa" fill-rule="evenodd"/>
    </g>
    <g id="Group_4195" data-name="Group 4195" transform="translate(11.16 0.02)">
      <path id="Path_9265" data-name="Path 9265" d="M939.265,385.424a.058.058,0,0,1-.068,0Z" transform="translate(-939.197 -385.424)" fill="#fafafa" fill-rule="evenodd"/>
    </g>
  </g>
</svg>
